<svg xmlns="http://www.w3.org/2000/svg" viewBox="0 0 731 731">
    <g transform="translate(0.000000,731.000000) scale(0.100000,-0.100000)">
        <path d="M3480 7304 c-486 -33 -906 -137 -1315 -327 -619 -285 -1133 -710 -1509 -1246 -382 -545 -585 -1129 -637 -1836 -18 -248 2 -580 52 -875 189 -1108 929 -2094 1959 -2610 394 -198 793 -316 1245 -370 147 -18 537 -24 681 -11 457 42 852 145 1234 323 508 237 1041 681 1407 1174 373 502 581 1044 670 1749 24 194 24 667 0 842 -61 437 -154 753 -328 1111 -138 286 -261 481 -467 739 -108 135 -385 413 -517 519 -350 279 -743 496 -1150 632 -264 89 -467 136 -715 167 -120 15 -496 27 -610 19z m560 -280 c1100 -130 2107 -839 2619 -1844 142 -279 231 -532 291 -830 54 -267 64 -371 63 -660 0 -288 -8 -381 -54 -625 -93 -496 -260 -907 -527 -1294 -134 -195 -225 -302 -418 -491 -436 -426 -833 -679 -1314 -837 -528 -173 -1084 -210 -1635 -108 -833 154 -1593 636 -2135 1354 -226 300 -430 719 -525 1078 -82 310 -115 566 -116 903 -1 321 18 502 86 785 124 522 361 972 746 1420 269 312 650 606 1039 800 456 228 830 329 1375 369 90 7 377 -5 505 -20z"/>
        <path d="M3415 6806 c-53 -24 -78 -60 -83 -119 -8 -101 49 -161 146 -154 172 13 177 264 5 283 -21 2 -51 -2 -68 -10z"/>
        <path d="M3825 6810 c-53 -16 -88 -62 -93 -123 -8 -96 47 -157 140 -157 125 0 179 164 83 249 -20 17 -41 31 -48 31 -7 0 -21 2 -32 4 -11 3 -34 1 -50 -4z"/>
        <path d="M2902 6760 c-54 -24 -88 -90 -77 -148 9 -49 69 -108 120 -118 84 -15 174 73 161 158 -12 71 -50 109 -126 122 -24 4 -48 0 -78 -14z"/>
        <path d="M4286 6749 c-100 -79 -57 -242 68 -256 36 -5 54 0 89 20 99 58 97 190 -3 242 -43 22 -122 19 -154 -6z"/>
        <path d="M2368 6544 c-51 -49 -137 -131 -190 -183 l-98 -96 0 -185 0 -184 -59 -61 c-32 -33 -111 -118 -175 -190 l-116 -130 146 -3 147 -3 36 43 c19 24 80 89 135 146 l99 103 -6 183 -6 183 91 83 92 83 99 -103 99 -102 84 57 c46 31 87 62 90 67 6 9 -299 320 -358 366 -15 12 -28 3 -110 -74z"/>
        <path d="M4793 6605 c-43 -19 -73 -69 -73 -124 0 -151 195 -195 266 -59 33 63 2 146 -66 180 -42 21 -83 22 -127 3z"/>
        <path d="M4495 6371 l-100 -57 -3 -235 -2 -236 28 -54 c73 -140 244 -204 372 -139 179 91 222 315 86 453 -57 57 -109 80 -198 85 l-77 5 -3 117 -3 118 -100 -57z m243 -407 c50 -57 12 -144 -63 -144 -65 0 -114 76 -84 129 31 56 104 63 147 15z"/>
        <path d="M5272 6330 c-32 -20 -71 -86 -72 -121 0 -9 -29 -42 -65 -74 l-65 -57 0 -123 0 -124 33 -6 c17 -3 68 -5 112 -3 l80 3 3 121 3 121 40 6 c112 15 174 131 116 218 -12 18 -34 39 -47 46 -37 19 -101 16 -138 -7z"/>
        <path d="M1855 6273 c-50 -12 -82 -72 -64 -120 25 -66 94 -83 148 -37 53 44 40 123 -24 150 -19 8 -36 13 -37 13 -2 -1 -12 -3 -23 -6z"/>
        <path d="M3465 6215 c-306 -49 -543 -138 -770 -290 -286 -191 -511 -467 -620 -760 -42 -112 -85 -273 -85 -316 l0 -29 113 0 112 0 18 93 c60 306 285 619 586 819 97 64 256 148 280 148 7 0 11 -41 11 -117 l0 -118 -53 -29 c-192 -106 -364 -292 -462 -498 -177 -373 -126 -780 130 -1033 39 -38 96 -85 127 -103 57 -34 235 -117 448 -210 63 -27 221 -96 350 -152 129 -56 313 -136 408 -176 268 -115 523 -237 593 -285 142 -96 236 -223 324 -436 2 -5 210 58 218 66 13 13 -59 171 -127 275 -65 101 -214 259 -301 321 -73 52 -141 86 -338 171 -84 37 -260 113 -392 171 -132 58 -377 164 -545 235 -437 186 -515 225 -594 299 -113 105 -166 243 -166 430 0 127 23 228 79 344 90 188 285 368 469 431 l52 19 0 241 0 241 83 12 c126 20 372 25 480 12 86 -11 255 -48 300 -66 16 -7 17 3 17 118 l0 126 -57 12 c-162 33 -224 40 -403 44 -140 3 -220 0 -285 -10z"/>
        <path d="M5692 6114 c-38 -30 -62 -72 -62 -110 0 -19 -20 -47 -75 -103 -41 -43 -75 -82 -75 -87 0 -5 52 -61 115 -126 l115 -116 -7 -81 c-6 -77 -4 -84 26 -146 107 -216 388 -222 495 -10 71 139 8 314 -136 384 -49 23 -164 29 -199 10 -17 -9 -28 -2 -77 45 l-57 56 80 74 80 74 -80 81 c-44 45 -86 81 -95 81 -8 0 -30 -12 -48 -26z m349 -593 c46 -47 37 -106 -22 -137 -59 -30 -129 12 -129 78 0 41 48 88 90 88 22 0 41 -9 61 -29z"/>
        <path d="M1447 6056 c-126 -47 -197 -144 -197 -268 0 -205 209 -335 393 -245 93 46 157 146 157 245 0 96 -56 192 -142 245 -57 35 -151 46 -211 23z m141 -210 c52 -51 14 -138 -61 -138 -95 0 -127 86 -54 148 36 31 78 27 115 -10z"/>
        <path d="M3520 5365 l0 -405 110 0 110 0 0 405 0 405 -110 0 -110 0 0 -405z"/>
        <path d="M3930 5621 l0 -118 78 -28 c321 -114 567 -362 681 -687 l30 -88 -112 0 -112 0 -24 63 c-73 193 -241 372 -448 476 -96 48 -93 51 -93 -93 l0 -124 55 -31 c30 -17 86 -60 124 -97 116 -109 156 -192 165 -339 l4 -80 341 -3 341 -2 0 72 c0 423 -306 881 -728 1093 -66 32 -200 81 -274 99 l-28 6 0 -119z"/>
        <path d="M5150 5691 c-76 -25 -155 -97 -185 -168 -21 -49 -16 -173 9 -221 26 -49 85 -111 127 -133 98 -49 229 -30 304 46 68 68 90 116 90 205 -1 62 -5 84 -27 126 -30 57 -84 109 -136 131 -41 17 -148 26 -182 14z m134 -212 c36 -42 34 -82 -4 -121 -27 -26 -36 -30 -68 -25 -78 13 -107 94 -53 148 41 41 90 40 125 -2z"/>
        <path d="M1197 5363 c-4 -3 -7 -374 -7 -822 l0 -816 225 -240 c125 -132 235 -257 246 -277 37 -72 114 -96 187 -59 49 25 72 64 72 120 0 49 -43 104 -94 121 -22 7 -71 51 -147 132 -63 67 -151 161 -196 208 l-82 85 -1 663 0 662 124 0 124 0 -19 -72 c-62 -240 -72 -621 -23 -868 33 -165 117 -381 208 -534 184 -310 480 -574 769 -687 l72 -28 3 -344 2 -345 104 -89 c109 -93 199 -148 331 -203 68 -28 202 -69 228 -70 4 0 6 52 5 117 l-3 116 -65 18 c-90 25 -212 87 -304 155 l-77 56 1 365 1 366 -116 48 c-231 95 -358 179 -520 343 -214 217 -352 474 -416 775 -26 123 -36 395 -20 540 21 197 72 396 130 508 11 23 21 47 21 53 0 11 -752 15 -763 3z"/>
        <path d="M908 5303 c-63 -39 -64 -143 -1 -172 68 -31 139 3 150 72 7 48 -10 81 -52 102 -42 19 -63 19 -97 -2z"/>
        <path d="M6310 5283 c-19 -18 -33 -41 -36 -64 -5 -31 -1 -42 24 -70 25 -28 37 -34 72 -34 34 0 47 6 66 28 32 37 39 71 24 108 -25 60 -101 76 -150 32z"/>
        <path d="M3250 5216 c-195 -129 -315 -360 -282 -540 18 -93 64 -180 131 -245 68 -68 132 -100 486 -251 313 -133 986 -427 1096 -477 133 -62 233 -135 364 -267 223 -225 332 -430 366 -688 l12 -98 109 0 108 0 0 455 0 455 90 0 90 0 1 -607 c1 -335 1 -652 0 -705 l-1 -98 298 0 299 0 49 63 c27 34 64 82 82 107 l32 45 -270 3 -270 2 0 621 0 621 -82 84 -82 84 -263 0 c-145 0 -263 -2 -263 -5 0 -3 14 -52 31 -108 24 -79 32 -128 36 -217 l6 -115 -66 88 c-168 223 -348 385 -538 482 -36 19 -187 86 -335 150 -148 64 -284 124 -302 132 l-33 16 3 258 3 259 -117 0 -118 0 -2 -210 -3 -210 -175 76 c-426 183 -449 194 -484 236 -60 69 -70 182 -26 268 10 19 37 53 59 75 l41 39 0 133 c0 73 -3 133 -7 133 -5 -1 -37 -20 -73 -44z"/>
        <path d="M5193 5038 c-95 -68 -82 -203 24 -250 94 -42 193 26 193 132 0 40 -22 81 -60 114 -42 34 -111 36 -157 4z"/>
        <path d="M5570 4853 l0 -118 113 0 112 0 3 118 3 117 -116 0 -115 0 0 -117z"/>
        <path d="M5962 4854 l3 -116 157 1 156 2 34 -30 34 -30 -4 -870 -4 -871 111 0 111 0 2 238 3 237 55 5 c65 7 106 27 154 76 57 59 81 118 81 199 0 58 -5 78 -27 116 -53 89 -149 149 -240 149 l-28 0 0 401 0 400 -102 105 -101 104 -199 0 -199 0 3 -116z m687 -1130 c12 -15 21 -32 21 -39 0 -7 -9 -24 -21 -39 -42 -53 -128 -18 -115 48 12 60 78 77 115 30z"/>
        <path d="M759 4863 c-15 -9 -34 -29 -43 -44 -20 -35 -21 -118 -1 -147 14 -19 15 -64 9 -366 l-7 -344 -46 -4 c-117 -12 -218 -109 -236 -228 -21 -144 92 -294 233 -309 l57 -6 0 -160 0 -160 108 -3 107 -3 0 783 c1 673 3 786 15 802 9 12 15 42 15 74 0 50 -3 58 -39 93 -35 36 -43 39 -92 39 -32 0 -65 -7 -80 -17z m-20 -1139 c12 -15 21 -32 21 -39 0 -27 -41 -65 -70 -65 -31 0 -70 39 -70 71 0 56 83 78 119 33z"/>
        <path d="M3550 4810 c-49 -53 -45 -128 11 -174 56 -48 140 -31 174 34 28 53 11 120 -37 154 -13 9 -43 16 -71 16 -41 0 -53 -5 -77 -30z"/>
        <path d="M5184 4671 c-46 -28 -64 -59 -64 -111 0 -110 103 -178 205 -136 46 20 75 69 75 129 0 42 -5 53 -38 89 -35 37 -45 42 -93 45 -41 3 -61 0 -85 -16z"/>
        <path d="M2056 4630 c-106 -32 -130 -178 -41 -248 40 -32 96 -37 148 -14 55 25 93 92 83 148 -9 46 -59 101 -104 114 -42 11 -47 11 -86 0z"/>
        <path d="M5762 4454 c-57 -28 -101 -73 -134 -137 -17 -32 -22 -60 -22 -117 -1 -65 3 -82 29 -129 112 -202 389 -203 499 0 25 44 29 64 29 123 0 168 -115 286 -278 286 -56 0 -82 -5 -123 -26z m169 -174 c23 -13 49 -61 49 -90 0 -33 -53 -80 -90 -80 -42 0 -67 15 -85 50 -20 38 -11 73 27 105 31 26 67 32 99 15z"/>
        <path d="M4570 4228 c41 -22 125 -69 187 -104 l112 -64 103 0 103 0 84 -76 c87 -79 113 -94 162 -94 69 0 139 66 139 131 0 83 -55 139 -137 139 -45 0 -54 5 -113 55 l-65 55 -325 0 -325 0 75 -42z"/>
        <path d="M2268 4215 c-3 -3 -42 -21 -87 -39 -45 -18 -84 -36 -87 -38 -9 -10 54 -154 105 -241 91 -153 211 -288 345 -386 69 -51 245 -137 434 -211 l132 -53 0 -398 0 -399 110 0 110 0 0 469 0 468 -67 31 c-38 17 -136 60 -219 95 -353 152 -469 234 -606 427 -49 69 -107 181 -127 243 -11 33 -28 46 -43 32z"/>
        <path d="M3520 3435 c0 -111 2 -126 18 -131 38 -13 406 -171 534 -230 75 -34 164 -81 197 -103 337 -229 458 -690 281 -1068 -42 -91 -109 -190 -159 -237 l-31 -30 0 -258 c0 -147 4 -258 9 -258 5 0 54 21 109 46 l100 46 6 45 c3 25 6 103 6 174 l0 127 63 84 c143 191 218 450 204 708 -9 148 -44 275 -113 411 -111 218 -260 366 -474 474 -140 71 -717 325 -737 325 -10 0 -13 -29 -13 -125z"/>
        <path d="M1108 3351 c-28 -25 -33 -36 -33 -76 0 -40 5 -51 33 -76 54 -48 123 -35 157 31 24 46 19 88 -14 121 -41 41 -98 41 -143 0z"/>
        <path d="M1330 3091 c-137 -42 -228 -202 -191 -338 18 -67 70 -133 130 -166 73 -41 176 -49 244 -19 70 31 111 66 141 122 99 182 -35 412 -239 409 -33 0 -71 -4 -85 -8z m142 -208 c58 -55 21 -143 -60 -143 -68 0 -108 60 -78 118 30 59 91 70 138 25z"/>
        <path d="M3524 2951 c2 -73 5 -134 7 -135 11 -10 98 -49 199 -91 223 -91 311 -150 377 -252 80 -126 82 -294 6 -436 -29 -53 -106 -128 -152 -148 l-28 -13 -6 -209 c-4 -116 -7 -263 -7 -328 l0 -117 -95 -7 c-156 -12 -406 0 -520 25 -528 114 -908 371 -1305 883 l-145 187 -386 0 -386 0 -87 95 -88 95 -129 0 c-71 0 -129 -3 -129 -7 1 -15 120 -156 235 -279 l117 -124 366 -2 367 -3 132 -159 c195 -234 280 -324 419 -440 159 -133 265 -203 434 -287 403 -201 838 -261 1309 -179 62 10 115 21 117 22 1 2 4 161 6 353 l4 350 76 76 c310 311 206 837 -208 1047 -31 16 -411 177 -492 209 -10 4 -12 -22 -8 -126z"/>
        <path d="M2025 2938 c-177 -91 -220 -313 -87 -452 111 -116 300 -115 403 2 97 110 95 286 -4 391 -75 78 -221 106 -312 59z m177 -200 c25 -27 29 -38 24 -68 -11 -74 -100 -107 -151 -55 -36 35 -34 88 4 126 41 40 83 39 123 -3z"/>
        <path d="M739 2917 c-43 -29 -59 -60 -59 -121 0 -44 4 -53 44 -92 40 -40 48 -44 94 -44 56 0 100 28 127 81 63 121 -91 253 -206 176z"/>
        <path d="M6416 2729 c-64 -18 -114 -98 -101 -160 10 -44 60 -97 104 -109 87 -23 181 46 181 134 0 88 -98 160 -184 135z"/>
        <path d="M5045 2600 c-101 -50 -101 -187 0 -245 49 -29 84 -31 131 -9 104 49 98 216 -9 259 -50 20 -74 19 -122 -5z"/>
        <path d="M3569 2574 c-89 -57 -72 -188 28 -223 35 -13 46 -13 79 0 49 19 84 69 84 121 0 29 -8 47 -33 74 -28 31 -41 37 -83 41 -34 2 -57 -1 -75 -13z"/>
        <path d="M5415 2383 c-7 -64 -53 -237 -86 -323 -95 -253 -292 -519 -519 -701 l-45 -37 0 -117 c0 -71 4 -120 10 -122 6 -2 42 21 81 51 l71 54 154 -144 c85 -79 158 -144 163 -144 5 0 143 135 306 300 214 216 300 296 308 288 6 -6 42 -13 80 -16 60 -4 77 -1 123 20 181 84 233 299 108 441 -58 66 -126 97 -214 97 -90 0 -143 -26 -202 -98 -50 -61 -63 -102 -63 -198 l0 -70 -107 -115 c-218 -233 -334 -350 -342 -347 -5 2 -39 32 -75 67 l-66 63 87 92 c218 228 357 495 426 816 14 63 28 134 31 158 l6 42 -114 0 -115 0 -6 -57z m594 -558 c50 -25 58 -96 16 -135 -38 -36 -90 -33 -126 8 -37 41 -37 76 0 113 33 32 67 37 110 14z"/>
        <path d="M3980 2353 c-52 -19 -66 -75 -27 -111 43 -41 97 -22 112 40 5 21 1 33 -19 52 -25 26 -38 29 -66 19z"/>
        <path d="M2313 2262 c-51 -26 -93 -51 -93 -56 0 -24 152 -205 260 -309 180 -174 371 -293 597 -371 160 -55 292 -78 491 -83 l172 -6 0 187 0 186 -90 2 c-49 1 -98 2 -107 2 -15 1 -18 -10 -21 -71 l-3 -73 -33 0 c-50 0 -202 28 -281 51 -91 27 -297 126 -386 185 -92 61 -229 191 -325 310 -42 52 -79 94 -83 93 -3 0 -48 -21 -98 -47z"/>
        <path d="M5035 2198 c-36 -19 -55 -52 -55 -95 0 -76 69 -128 136 -103 69 27 100 91 70 149 -27 52 -102 77 -151 49z"/>
        <path d="M3571 2183 c-37 -18 -70 -78 -71 -126 -1 -121 149 -177 234 -88 56 58 42 161 -28 206 -38 25 -95 28 -135 8z"/>
        <path d="M1051 1894 c-25 -21 -31 -33 -31 -66 0 -32 7 -47 34 -74 20 -20 44 -34 59 -34 34 0 73 34 87 74 32 97 -71 166 -149 100z"/>
        <path d="M1454 1851 c-72 -18 -150 -87 -183 -161 -29 -64 -28 -159 3 -225 44 -95 153 -165 257 -165 92 0 191 65 235 155 23 49 26 64 22 128 -10 150 -110 259 -250 271 -29 3 -67 1 -84 -3z m101 -193 c29 -13 55 -55 55 -87 0 -11 -11 -32 -24 -48 -19 -22 -32 -28 -65 -28 -85 0 -117 89 -53 146 36 32 49 35 87 17z"/>
        <path d="M2054 1431 c-38 -23 -64 -76 -64 -130 0 -32 -5 -44 -27 -58 -14 -10 -44 -34 -65 -54 -32 -31 -38 -43 -38 -78 0 -86 52 -141 134 -141 28 0 58 6 67 13 35 26 59 81 59 134 l0 51 54 31 c66 37 86 63 86 115 0 103 -118 171 -206 117z"/>
        <path d="M2572 1029 c-79 -68 -84 -70 -102 -54 -17 15 -21 15 -48 1 -77 -40 -127 -106 -116 -151 7 -27 127 -145 147 -145 7 0 28 13 47 28 19 16 76 57 126 91 88 60 196 146 202 160 2 6 -160 141 -170 141 -1 0 -40 -32 -86 -71z"/>
        <path d="M4783 971 c-42 -26 -63 -69 -63 -126 0 -39 5 -52 38 -87 33 -35 45 -41 88 -45 58 -5 103 18 134 69 35 58 22 125 -34 177 -36 34 -118 40 -163 12z"/>
        <path d="M2895 841 c-62 -37 -86 -104 -59 -170 32 -82 106 -116 182 -86 53 22 84 64 89 124 10 111 -118 190 -212 132z"/>
        <path d="M4320 853 c-8 -3 -26 -15 -38 -27 -102 -92 -41 -250 95 -248 85 2 137 61 130 150 -3 45 -9 59 -39 89 -30 29 -45 36 -85 39 -26 2 -55 1 -63 -3z"/>
        <path d="M3400 771 c-94 -50 -98 -196 -7 -251 91 -56 217 16 217 123 0 47 -20 87 -60 121 -38 32 -99 35 -150 7z"/>
        <path d="M3803 774 c-124 -63 -80 -274 57 -274 72 0 135 53 147 124 7 43 -26 118 -61 141 -38 25 -104 29 -143 9z"/>
    </g>
</svg>
