<svg xmlns="http://www.w3.org/2000/svg" viewBox="0 0 50 50">
    <path d="M0.428377 40.438C0.174797 41.0455 0.0436029 41.6972 0.0423067 42.3556C0.0423067 45.0847 2.34823 47.5748 6.15988 49.482C6.50783 49.6512 6.88731 49.7456 7.27391 49.7593C7.66053 49.7729 8.04572 49.7054 8.40471 49.5612C8.76371 49.417 9.08854 49.1992 9.35838 48.9218C9.62823 48.6444 9.83708 48.3136 9.97153 47.9507L14.2185 37.73C14.9623 35.9512 15.5494 34.1109 15.9733 32.2298C8.10434 33.5505 2.17277 36.5675 0.530175 40.2588L0.463467 40.4169L0.428377 40.438ZM15.9598 17.533C15.536 15.652 14.9487 13.8116 14.205 12.0328L9.95807 1.80865C9.82287 1.44582 9.61337 1.11534 9.34304 0.838346C9.07271 0.561353 8.74748 0.343933 8.38826 0.200046C8.02902 0.0561582 7.64375 -0.0108798 7.25708 0.0029422C6.87041 0.0169024 6.49089 0.111582 6.14291 0.280902C2.33476 2.18447 0.0288086 4.67824 0.0288086 7.40712C0.0303806 8.06561 0.161563 8.71717 0.414878 9.32493V9.34594L0.481588 9.50406C2.15928 13.1954 8.09085 16.2089 15.9598 17.533ZM43.6684 0.280902C47.4801 2.18447 49.786 4.67824 49.786 7.40712C49.7761 8.06685 49.6377 8.71814 49.3788 9.32493L49.3227 9.45486C47.6942 13.1708 41.7485 16.2018 33.855 17.533C34.2788 15.652 34.866 13.8116 35.6099 12.0328L39.8567 1.80865C39.991 1.44569 40.1999 1.11478 40.4698 0.837515C40.7398 0.560245 41.0647 0.342551 41.4238 0.198664C41.7831 0.0547762 42.1683 -0.0122631 42.5549 0.00183536C42.9415 0.0159338 43.3208 0.111029 43.6684 0.280902ZM33.8792 32.2298C34.2951 34.1093 34.8752 35.9487 35.6131 37.7265L39.86 47.9507C39.9944 48.3136 40.2033 48.6444 40.4732 48.9218C40.743 49.1992 41.0678 49.417 41.4269 49.5612C41.7858 49.7054 42.1711 49.7729 42.5577 49.7593C42.9443 49.7456 43.3237 49.6512 43.6716 49.482C47.4833 47.5748 49.7892 45.0847 49.7892 42.3556C49.7862 41.6974 49.6551 41.046 49.4032 40.438L49.347 40.308C47.7254 36.5921 41.7587 33.5574 33.8792 32.2298ZM33.6112 19.7084C39.1989 18.848 43.8423 17.1727 47.0468 14.9845L46.1377 17.1656C44.1019 22.1033 44.1019 27.6467 46.1377 32.5844L47.0397 34.7584C43.8318 32.5703 39.1883 30.9126 33.6078 30.0415L33.4603 30.0204C30.6305 29.5919 27.7724 29.3794 24.9104 29.3847C22.0554 29.3804 19.2044 29.593 16.3815 30.0204L16.2342 30.0415C10.6501 30.8985 6.00658 32.5739 2.79862 34.762L3.70413 32.5844C5.74 27.6467 5.74 22.1033 3.70413 17.1656L2.79862 14.9845C5.99254 17.1832 10.636 18.848 16.2201 19.7084L16.3675 19.7296C22.0351 20.5725 27.7961 20.5725 33.4639 19.7296L33.6112 19.7084Z"></path>
</svg>