<svg xmlns="http://www.w3.org/2000/svg" viewBox="0 0 32 32">
<!-- <path d="M0 8C0 5.19974 0 3.79961 0.544967 2.73005C1.02433 1.78924 1.78924 1.02433 2.73005 0.544967C3.79961 0 5.19974 0 8 0H24C26.8003 0 28.2004 0 29.27 0.544967C30.2108 1.02433 30.9757 1.78924 31.455 2.73005C32 3.79961 32 5.19974 32 8V24C32 26.8003 32 28.2004 31.455 29.27C30.9757 30.2108 30.2108 30.9757 29.27 31.455C28.2004 32 26.8003 32 24 32H8C5.19974 32 3.79961 32 2.73005 31.455C1.78924 30.9757 1.02433 30.2108 0.544967 29.27C0 28.2004 0 26.8003 0 24V8Z"/> -->
<path d="M24.4167 5.6809V23.2816C24.4167 23.2816 28.625 23.0291 28.625 18.2362V5.6809H24.4167Z"/>
<path d="M7.58333 26.319V8.71835C7.58333 8.71835 3.375 8.97087 3.375 13.7638V26.319H7.58333Z"/>
<path d="M20.5437 20.5647L15.2484 8.44158C14.3818 6.47975 12.9668 5.375 10.9593 5.375C8.95182 5.375 7.58087 6.98963 7.58087 8.71838C7.58087 8.71838 10.1122 8.36874 11.4538 11.4353L16.7516 23.5584C17.6157 25.5178 19.0332 26.625 21.0382 26.625C23.0433 26.625 24.4166 25.0104 24.4166 23.2816C24.4166 23.2816 21.8853 23.6313 20.5437 20.5647Z"/>
</svg>
