<svg xmlns="http://www.w3.org/2000/svg" viewBox="0 0 540 540">
   <path fill="none" stroke="currentColor" stroke-width="90" d="m 0,470.00001 h 191.99999 c 26.17994,0 52.19867,-10.77731 70.71068,-29.28933 18.51201,-18.51201 29.28932,-44.53074 29.28932,-70.71067 0,-26.17994 -10.77731,-52.19867 -29.28932,-70.71068 -18.51201,-18.51201 -44.53074,-29.28932 -70.71068,-29.28932 h -20 C 145.82006,270 119.80133,259.22269 101.28932,240.71068 82.777309,222.19867 72,196.17994 72,170.00001 72,143.82007 82.777309,117.80134 101.28932,99.289324 119.80133,80.777312 145.82006,70.000002 171.99999,70 h 198 c 26.17991,-1.44e-4 52.19866,10.777055 70.71068,29.289 18.51214,18.51206 29.28947,44.53095 29.28932,70.71101 v 370" />
</svg>
